<?xml version="1.0" encoding="UTF-8" standalone="yes"?>
<svg version="1.2" width="100%" viewBox="0 0 196 196" xml:space="preserve" baseProfile="tiny-ps" xmlns="http://www.w3.org/2000/svg">
  <title>bimi-svg-tiny-12-ps</title>
  <path fill="#FEFEFE" stroke="none" d="&#xA;M115.000000,197.000000 &#xA;&#x9;C76.690804,197.000000 38.881615,197.000000 1.036210,197.000000 &#xA;&#x9;C1.036210,131.732513 1.036210,66.464996 1.036210,1.098741 &#xA;&#x9;C66.225685,1.098741 131.451569,1.098741 196.838730,1.098741 &#xA;&#x9;C196.838730,66.333015 196.838730,131.666473 196.838730,197.000000 &#xA;&#x9;C169.798615,197.000000 142.649307,197.000000 115.000000,197.000000 &#xA;M94.500183,39.377625 &#xA;&#x9;C72.338737,39.378323 50.177280,39.362404 28.015869,39.390289 &#xA;&#x9;C21.730608,39.398197 20.555683,40.503563 20.549532,46.543671 &#xA;&#x9;C20.519167,76.369987 20.522280,106.196358 20.547842,136.022675 &#xA;&#x9;C20.552704,141.694962 22.220276,143.375366 28.013466,143.535553 &#xA;&#x9;C32.273369,143.653336 36.539143,143.558640 40.647724,143.558640 &#xA;&#x9;C40.826454,144.257370 40.947197,144.451828 40.896057,144.574829 &#xA;&#x9;C40.581486,145.331528 40.261497,146.089539 39.882362,146.815262 &#xA;&#x9;C36.605850,153.087250 36.736458,152.860840 42.730087,156.452515 &#xA;&#x9;C46.761993,158.868622 49.340004,158.757309 51.124348,154.049973 &#xA;&#x9;C51.884071,152.045731 53.322472,150.302261 54.115719,148.306442 &#xA;&#x9;C55.590599,144.595581 57.981331,143.430267 62.081402,143.452332 &#xA;&#x9;C97.572060,143.643265 133.064178,143.565598 168.555862,143.558868 &#xA;&#x9;C176.688995,143.557327 177.256821,142.966446 177.257492,134.672379 &#xA;&#x9;C177.259842,105.679169 177.261551,76.685966 177.256073,47.692760 &#xA;&#x9;C177.254654,40.172714 176.481491,39.385693 168.982971,39.382248 &#xA;&#x9;C144.488708,39.371002 119.994446,39.377800 94.500183,39.377625 &#xA;z"/>
  <path fill="#0D0D0D" stroke="none" d="&#xA;M95.000183,39.377640 &#xA;&#x9;C119.994446,39.377800 144.488708,39.371002 168.982971,39.382248 &#xA;&#x9;C176.481491,39.385693 177.254654,40.172714 177.256073,47.692760 &#xA;&#x9;C177.261551,76.685966 177.259842,105.679169 177.257492,134.672379 &#xA;&#x9;C177.256821,142.966446 176.688995,143.557327 168.555862,143.558868 &#xA;&#x9;C133.064178,143.565598 97.572060,143.643265 62.081402,143.452332 &#xA;&#x9;C57.981331,143.430267 55.590599,144.595581 54.115719,148.306442 &#xA;&#x9;C53.322472,150.302261 51.884071,152.045731 51.124348,154.049973 &#xA;&#x9;C49.340004,158.757309 46.761993,158.868622 42.730087,156.452515 &#xA;&#x9;C36.736458,152.860840 36.605850,153.087250 39.882362,146.815262 &#xA;&#x9;C40.261497,146.089539 40.581486,145.331528 40.896057,144.574829 &#xA;&#x9;C40.947197,144.451828 40.826454,144.257370 40.647724,143.558640 &#xA;&#x9;C36.539143,143.558640 32.273369,143.653336 28.013466,143.535553 &#xA;&#x9;C22.220276,143.375366 20.552704,141.694962 20.547842,136.022675 &#xA;&#x9;C20.522280,106.196358 20.519167,76.369987 20.549532,46.543671 &#xA;&#x9;C20.555683,40.503563 21.730608,39.398197 28.015869,39.390289 &#xA;&#x9;C50.177280,39.362404 72.338737,39.378323 95.000183,39.377640 &#xA;M64.273407,136.145950 &#xA;&#x9;C98.695419,136.145950 133.117432,136.145950 167.591400,136.145950 &#xA;&#x9;C167.591400,113.778847 167.591400,91.987869 167.591400,69.930206 &#xA;&#x9;C121.385208,69.930206 75.331078,69.930206 29.330719,69.930206 &#xA;&#x9;C29.330719,92.097130 29.330719,114.007607 29.330719,136.143616 &#xA;&#x9;C34.113243,136.143616 38.598366,136.240433 43.073875,136.075958 &#xA;&#x9;C44.201378,136.034531 45.827549,135.464188 46.321785,134.612823 &#xA;&#x9;C49.193489,129.666000 51.795712,124.562737 54.566826,119.366524 &#xA;&#x9;C50.088509,116.946556 46.142139,114.825623 42.207172,112.683731 &#xA;&#x9;C39.454765,111.185532 38.918961,109.345406 41.712559,107.423134 &#xA;&#x9;C54.733253,98.463646 67.785400,89.549751 80.847206,80.650223 &#xA;&#x9;C83.511063,78.835236 85.558372,79.391907 85.443558,82.822556 &#xA;&#x9;C84.919907,98.469543 84.223274,114.111153 83.509529,129.751068 &#xA;&#x9;C83.345810,133.338516 81.522644,133.933899 78.488312,132.224731 &#xA;&#x9;C74.587059,130.027252 70.586235,128.006561 66.346146,125.760239 &#xA;&#x9;C64.785820,128.651749 63.224777,131.381592 61.899689,134.221527 &#xA;&#x9;C61.746609,134.549606 62.905487,135.489822 64.273407,136.145950 &#xA;M37.598991,54.833008 &#xA;&#x9;C34.822392,54.833008 32.045788,54.833008 29.374935,54.833008 &#xA;&#x9;C29.374935,58.079575 29.374935,60.806767 29.374935,63.453674 &#xA;&#x9;C75.638405,63.453674 121.534958,63.453674 167.597260,63.453674 &#xA;&#x9;C167.597260,60.501083 167.597260,57.872631 167.597260,54.833050 &#xA;&#x9;C124.505058,54.833050 81.539780,54.833050 37.598991,54.833008 &#xA;M52.440643,50.097363 &#xA;&#x9;C53.618946,48.643051 55.050724,47.303608 55.798256,45.654083 &#xA;&#x9;C55.986370,45.238987 54.006332,43.096786 52.980198,43.063648 &#xA;&#x9;C51.685509,43.021828 49.149090,44.571800 49.238216,45.010139 &#xA;&#x9;C49.596710,46.773193 50.761383,48.372322 52.440643,50.097363 &#xA;M43.164215,49.996052 &#xA;&#x9;C43.993973,48.317616 45.124767,46.692772 45.439877,44.922710 &#xA;&#x9;C45.517761,44.485214 42.919933,43.008945 41.601074,43.069908 &#xA;&#x9;C40.613205,43.115566 38.725555,45.311306 38.936146,45.769493 &#xA;&#x9;C39.680801,47.389675 41.155308,48.674404 43.164215,49.996052 &#xA;M30.013691,49.345203 &#xA;&#x9;C31.814356,48.919167 33.755241,48.750729 35.323212,47.897209 &#xA;&#x9;C35.748146,47.665901 35.517250,44.788643 34.743896,44.154572 &#xA;&#x9;C33.731041,43.324123 30.775078,42.971573 30.584358,43.360233 &#xA;&#x9;C29.788319,44.982471 29.715172,46.959431 30.013691,49.345203 &#xA;z"/>
  <path fill="#FDFDFD" stroke="none" d="&#xA;M63.864750,136.146088 &#xA;&#x9;C62.905487,135.489822 61.746609,134.549606 61.899689,134.221527 &#xA;&#x9;C63.224777,131.381592 64.785820,128.651749 66.346146,125.760239 &#xA;&#x9;C70.586235,128.006561 74.587059,130.027252 78.488312,132.224731 &#xA;&#x9;C81.522644,133.933899 83.345810,133.338516 83.509529,129.751068 &#xA;&#x9;C84.223274,114.111153 84.919907,98.469543 85.443558,82.822556 &#xA;&#x9;C85.558372,79.391907 83.511063,78.835236 80.847206,80.650223 &#xA;&#x9;C67.785400,89.549751 54.733253,98.463646 41.712559,107.423134 &#xA;&#x9;C38.918961,109.345406 39.454765,111.185532 42.207172,112.683731 &#xA;&#x9;C46.142139,114.825623 50.088509,116.946556 54.566826,119.366524 &#xA;&#x9;C51.795712,124.562737 49.193489,129.666000 46.321785,134.612823 &#xA;&#x9;C45.827549,135.464188 44.201378,136.034531 43.073875,136.075958 &#xA;&#x9;C38.598366,136.240433 34.113243,136.143616 29.330719,136.143616 &#xA;&#x9;C29.330719,114.007607 29.330719,92.097130 29.330719,69.930206 &#xA;&#x9;C75.331078,69.930206 121.385208,69.930206 167.591400,69.930206 &#xA;&#x9;C167.591400,91.987869 167.591400,113.778847 167.591400,136.145950 &#xA;&#x9;C133.117432,136.145950 98.695419,136.145950 63.864750,136.146088 &#xA;z"/>
  <path fill="#F5F5F5" stroke="none" d="&#xA;M38.086746,54.833031 &#xA;&#x9;C81.539780,54.833050 124.505058,54.833050 167.597260,54.833050 &#xA;&#x9;C167.597260,57.872631 167.597260,60.501083 167.597260,63.453674 &#xA;&#x9;C121.534958,63.453674 75.638405,63.453674 29.374935,63.453674 &#xA;&#x9;C29.374935,60.806767 29.374935,58.079575 29.374935,54.833008 &#xA;&#x9;C32.045788,54.833008 34.822392,54.833008 38.086746,54.833031 &#xA;z"/>
  <path fill="#EDEDED" stroke="none" d="&#xA;M52.034401,50.064693 &#xA;&#x9;C50.761383,48.372322 49.596710,46.773193 49.238216,45.010139 &#xA;&#x9;C49.149090,44.571800 51.685509,43.021828 52.980198,43.063648 &#xA;&#x9;C54.006332,43.096786 55.986370,45.238987 55.798256,45.654083 &#xA;&#x9;C55.050724,47.303608 53.618946,48.643051 52.034401,50.064693 &#xA;z"/>
  <path fill="#F0F0F0" stroke="none" d="&#xA;M42.758675,50.041176 &#xA;&#x9;C41.155308,48.674404 39.680801,47.389675 38.936146,45.769493 &#xA;&#x9;C38.725555,45.311306 40.613205,43.115566 41.601074,43.069908 &#xA;&#x9;C42.919933,43.008945 45.517761,44.485214 45.439877,44.922710 &#xA;&#x9;C45.124767,46.692772 43.993973,48.317616 42.758675,50.041176 &#xA;z"/>
  <path fill="#F0F0F0" stroke="none" d="&#xA;M29.695343,49.075775 &#xA;&#x9;C29.715172,46.959431 29.788319,44.982471 30.584358,43.360233 &#xA;&#x9;C30.775078,42.971573 33.731041,43.324123 34.743896,44.154572 &#xA;&#x9;C35.517250,44.788643 35.748146,47.665901 35.323212,47.897209 &#xA;&#x9;C33.755241,48.750729 31.814356,48.919167 29.695343,49.075775 &#xA;z"/>
</svg>